<?xml version="1.0" standalone="no"?>
<!DOCTYPE svg PUBLIC "-//W3C//DTD SVG 20010904//EN"
 "http://www.w3.org/TR/2001/REC-SVG-20010904/DTD/svg10.dtd">
<svg version="1.0" xmlns="http://www.w3.org/2000/svg"
 width="364.000000pt" height="339.000000pt" viewBox="0 0 364.000000 339.000000"
 preserveAspectRatio="xMidYMid meet">

<g transform="translate(0.000000,339.000000) scale(0.100000,-0.100000)"
fill="#000000" stroke="none">
<path d="M2518 1583 c7 -3 16 -2 19 1 4 3 -2 6 -13 5 -11 0 -14 -3 -6 -6z"/>
<path d="M1266 1537 c-3 -12 -6 -44 -6 -70 0 -26 -7 -63 -14 -82 -17 -40 -9
-45 22 -12 19 20 22 35 22 100 0 75 -12 108 -24 64z"/>
<path d="M2341 1484 c0 -11 3 -14 6 -6 3 7 2 16 -1 19 -3 4 -6 -2 -5 -13z"/>
<path d="M1393 1389 c-1 -38 2 -69 6 -69 20 0 27 24 21 70 -10 79 -25 78 -27
-1z"/>
<path d="M1591 1397 c-1 -43 3 -66 9 -62 12 7 12 82 0 110 -6 14 -9 -1 -9 -48z"/>
<path d="M2330 1396 c0 -8 7 -17 16 -20 9 -4 14 -13 10 -21 -8 -21 3 -45 20
-45 18 0 18 11 -2 60 -15 38 -44 55 -44 26z"/>
<path d="M2052 1340 c0 -14 2 -19 5 -12 2 6 2 18 0 25 -3 6 -5 1 -5 -13z"/>
<path d="M1235 1323 c-19 -15 -19 -15 10 -8 37 8 57 25 30 25 -11 0 -29 -8
-40 -17z"/>
<path d="M1450 1331 c0 -5 7 -12 16 -15 24 -9 28 -7 14 9 -14 17 -30 20 -30 6z"/>
<path d="M1178 1306 c-13 -10 -15 -19 -8 -42 l8 -29 1 32 c1 19 8 36 19 42 9
6 13 10 7 10 -5 0 -18 -5 -27 -13z"/>
<path d="M2131 1260 l1 -45 10 34 c6 23 6 37 -1 44 -8 8 -11 -2 -10 -33z"/>
<path d="M2434 1285 c-3 -8 -4 -21 -2 -30 2 -14 7 -13 26 8 l23 24 -21 6 c-13
3 -23 0 -26 -8z"/>
<path d="M1023 1204 c30 -16 44 -14 32 5 -3 6 -18 11 -33 11 l-27 -1 28 -15z"/>
<path d="M2245 1210 c-12 -19 7 -27 73 -33 63 -5 63 -5 49 16 -11 17 -26 23
-65 25 -30 2 -53 -2 -57 -8z"/>
<path d="M2415 1200 c3 -5 8 -10 11 -10 2 0 4 5 4 10 0 6 -5 10 -11 10 -5 0
-7 -4 -4 -10z"/>
<path d="M2560 1200 c0 -6 7 -10 15 -10 8 0 15 2 15 4 0 2 -7 6 -15 10 -8 3
-15 1 -15 -4z"/>
<path d="M1118 1163 c6 -2 18 -2 25 0 6 3 1 5 -13 5 -14 0 -19 -2 -12 -5z"/>
<path d="M1641 1132 c-15 -28 -14 -31 9 -25 22 6 24 11 11 32 -7 11 -11 10
-20 -7z"/>
<path d="M2426 1122 c-2 -4 11 -12 29 -18 31 -10 33 -9 24 8 -10 18 -44 25
-53 10z"/>
<path d="M991 1062 c22 -16 74 -42 84 -42 3 0 5 4 5 10 0 14 -40 37 -79 44
l-34 6 24 -18z"/>
<path d="M2244 1065 c-11 -27 7 -35 77 -35 72 0 81 6 51 33 -24 22 -120 24
-128 2z"/>
<path d="M2553 1063 c-3 -7 -3 -17 1 -20 3 -4 6 1 6 9 0 11 7 14 25 10 14 -2
25 -2 25 1 0 2 -12 7 -26 10 -16 3 -28 0 -31 -10z"/>
<path d="M2405 1060 c3 -5 8 -10 11 -10 2 0 4 5 4 10 0 6 -5 10 -11 10 -5 0
-7 -4 -4 -10z"/>
<path d="M2121 1030 c0 -14 4 -32 9 -40 9 -13 10 -13 9 0 -1 8 -5 26 -9 40
l-8 25 -1 -25z"/>
<path d="M1816 1013 c9 -38 14 -42 14 -10 0 14 -5 29 -10 32 -7 4 -8 -3 -4
-22z"/>
<path d="M1590 980 c-11 -11 -20 -29 -20 -41 0 -20 1 -20 31 5 33 28 95 36
117 14 15 -15 16 -3 2 23 -15 28 -102 27 -130 -1z"/>
<path d="M1806 903 c5 -5 12 -12 16 -18 4 -6 8 -2 8 8 0 9 -7 17 -17 17 -9 0
-12 -3 -7 -7z"/>
<path d="M1975 831 c-3 -5 -2 -11 2 -14 15 -7 113 5 113 14 0 12 -107 12 -115
0z"/>
<path d="M1816 604 c-10 -14 -15 -28 -13 -31 3 -2 13 7 23 21 9 15 14 29 12
32 -3 2 -13 -7 -22 -22z"/>
<path d="M1448 560 c-10 -25 -28 -205 -28 -277 l1 -68 17 30 c12 22 17 62 20
150 4 127 0 191 -10 165z"/>
<path d="M2232 470 c0 -41 3 -84 8 -95 11 -26 11 97 0 140 -6 22 -8 10 -8 -45z"/>
<path d="M2098 433 c-2 -43 -6 -76 -9 -73 -3 3 -13 -1 -21 -8 -13 -11 -12 -20
10 -82 26 -73 49 -95 39 -37 l-6 32 14 -30 c13 -28 14 -24 9 50 -11 176 -16
225 -24 225 -5 0 -10 -35 -12 -77z"/>
<path d="M1030 418 c-12 -67 -8 -185 6 -222 17 -44 24 -2 24 139 0 86 -4 155
-9 155 -5 0 -15 -32 -21 -72z"/>
<path d="M1570 450 c0 -6 32 -10 75 -10 43 0 75 4 75 10 0 6 -32 10 -75 10
-43 0 -75 -4 -75 -10z"/>
<path d="M1880 450 c0 -5 25 -10 56 -10 34 0 53 4 49 10 -3 6 -28 10 -56 10
-27 0 -49 -4 -49 -10z"/>
<path d="M2420 450 c0 -5 7 -10 15 -10 20 0 90 -65 126 -116 29 -43 29 -43 12
-79 -13 -27 -14 -38 -5 -47 6 -6 15 -8 19 -4 10 9 8 102 -2 173 l-8 53 -38 -6
c-34 -6 -42 -3 -60 20 -20 25 -59 36 -59 16z"/>
<path d="M850 380 c0 -5 5 -10 11 -10 5 0 7 5 4 10 -3 6 -8 10 -11 10 -2 0 -4
-4 -4 -10z"/>
<path d="M1312 297 c-15 -62 -12 -77 7 -53 7 8 11 35 9 63 l-3 48 -13 -58z"/>
<path d="M1151 255 c-1 -65 0 -68 14 -47 14 19 14 27 1 69 l-15 48 0 -70z"/>
<path d="M1565 310 c3 -5 37 -10 76 -10 39 0 69 4 69 10 0 6 -32 10 -76 10
-47 0 -73 -4 -69 -10z"/>
<path d="M1888 293 c6 -2 18 -2 25 0 6 3 1 5 -13 5 -14 0 -19 -2 -12 -5z"/>
<path d="M797 233 c-15 -15 -6 -23 14 -12 12 6 41 9 65 7 24 -2 44 0 44 4 0
10 -114 11 -123 1z"/>
<path d="M2710 233 c0 -5 20 -7 44 -5 24 2 54 -2 66 -8 18 -10 21 -9 18 2 -5
14 -128 25 -128 11z"/>
</g>
</svg>
